<svg width="14" height="14" viewBox="0 0 14 14" fill="none" xmlns="http://www.w3.org/2000/svg">
<path d="M0.812272 0.812516C1.04668 0.578177 1.36457 0.446533 1.69602 0.446533C2.02748 0.446533 2.34536 0.578177 2.57977 0.812516L6.99977 5.23252L11.4198 0.812516C11.6555 0.584819 11.9713 0.458826 12.299 0.461674C12.6268 0.464522 12.9403 0.595983 13.172 0.827743C13.4038 1.0595 13.5353 1.37302 13.5381 1.70076C13.541 2.02851 13.415 2.34426 13.1873 2.58002L8.76727 7.00002L13.1873 11.42C13.415 11.6558 13.541 11.9715 13.5381 12.2993C13.5353 12.627 13.4038 12.9405 13.172 13.1723C12.9403 13.404 12.6268 13.5355 12.299 13.5384C11.9713 13.5412 11.6555 13.4152 11.4198 13.1875L6.99977 8.76752L2.57977 13.1875C2.34402 13.4152 2.02827 13.5412 1.70052 13.5384C1.37277 13.5355 1.05926 13.404 0.827499 13.1723C0.595739 12.9405 0.464278 12.627 0.46143 12.2993C0.458582 11.9715 0.584574 11.6558 0.812272 11.42L5.23227 7.00002L0.812272 2.58002C0.577933 2.34561 0.446289 2.02772 0.446289 1.69627C0.446289 1.36481 0.577933 1.04693 0.812272 0.812516Z" fill="#7D7D7D"/>
</svg>
