<svg width="112" height="112" viewBox="0 0 112 112" fill="none" xmlns="http://www.w3.org/2000/svg">
<g filter="url(#filter0_d_287_791)">
<path d="M25.3551 47.6171C25.3536 52.9944 26.7586 58.2448 29.4303 62.8727L25.0996 78.6847L41.2812 74.4418C45.7568 76.8783 50.7714 78.155 55.8672 78.1553H55.8806C72.703 78.1553 86.3967 64.4665 86.4039 47.6412C86.4071 39.4881 83.2349 31.8215 77.4715 26.0536C71.709 20.2861 64.0451 17.1082 55.8794 17.1045C39.0551 17.1045 25.3623 30.7926 25.3554 47.6171" fill="url(#paint0_linear_287_791)"/>
<path d="M24.2654 47.6071C24.2637 53.1778 25.7191 58.6161 28.486 63.4096L24 79.7884L40.7618 75.3935C45.3802 77.9116 50.5801 79.2392 55.8713 79.2412H55.8849C73.3108 79.2412 87.4964 65.06 87.5039 47.6324C87.5069 39.1864 84.2205 31.2442 78.2512 25.2696C72.2811 19.2958 64.3431 16.0035 55.8849 16C38.4561 16 24.2726 30.1792 24.2657 47.6071H24.2654ZM34.2474 62.5841L33.6216 61.5906C30.9906 57.4073 29.602 52.573 29.604 47.6091C29.6097 33.1235 41.3986 21.3383 55.8948 21.3383C62.915 21.3413 69.5124 24.0779 74.4747 29.0431C79.4366 34.0088 82.1671 40.6097 82.1653 47.6304C82.1589 62.116 70.3697 73.9026 55.8849 73.9026H55.8745C51.1581 73.9002 46.5325 72.6335 42.4985 70.24L41.5385 69.6707L31.5917 72.2786L34.2474 62.5838V62.5841Z" fill="url(#paint1_linear_287_791)"/>
<path d="M47.9821 34.3932C47.3902 33.0778 46.7673 33.0512 46.2045 33.0281C45.7436 33.0083 45.2167 33.0098 44.6903 33.0098C44.1634 33.0098 43.3074 33.208 42.5838 33.9981C41.8594 34.7889 39.8184 36.7 39.8184 40.5868C39.8184 44.474 42.6495 48.2304 43.0442 48.758C43.4393 49.2846 48.5097 57.5163 56.54 60.6831C63.2138 63.3148 64.572 62.7914 66.0204 62.6594C67.4691 62.5279 70.6949 60.7488 71.353 58.904C72.0116 57.0594 72.0116 55.4783 71.8141 55.1478C71.6167 54.8187 71.0898 54.621 70.2997 54.226C69.5094 53.8309 65.6252 51.9196 64.9011 51.6559C64.1768 51.3924 63.6502 51.261 63.1233 52.052C62.5964 52.8419 61.0835 54.621 60.6223 55.1478C60.1617 55.676 59.7005 55.7417 58.9107 55.3465C58.1201 54.9501 55.5758 54.1169 52.5571 51.4257C50.2084 49.3315 48.6228 46.7455 48.1619 45.9544C47.701 45.1646 48.1126 44.7364 48.5087 44.3428C48.8637 43.9888 49.299 43.4202 49.6945 42.9591C50.0884 42.4977 50.2198 42.1685 50.4833 41.6416C50.747 41.1142 50.615 40.6528 50.4178 40.2577C50.2198 39.8625 48.6846 35.9555 47.9821 34.3935" fill="white"/>
</g>
<defs>
<filter id="filter0_d_287_791" x="0" y="0" width="111.504" height="112" filterUnits="userSpaceOnUse" color-interpolation-filters="sRGB">
<feFlood flood-opacity="0" result="BackgroundImageFix"/>
<feColorMatrix in="SourceAlpha" type="matrix" values="0 0 0 0 0 0 0 0 0 0 0 0 0 0 0 0 0 0 127 0" result="hardAlpha"/>
<feOffset dy="8"/>
<feGaussianBlur stdDeviation="12"/>
<feComposite in2="hardAlpha" operator="out"/>
<feColorMatrix type="matrix" values="0 0 0 0 0 0 0 0 0 0 0 0 0 0 0 0 0 0 0.25 0"/>
<feBlend mode="normal" in2="BackgroundImageFix" result="effect1_dropShadow_287_791"/>
<feBlend mode="normal" in="SourceGraphic" in2="effect1_dropShadow_287_791" result="shape"/>
</filter>
<linearGradient id="paint0_linear_287_791" x1="55.7518" y1="78.6847" x2="55.7518" y2="17.1045" gradientUnits="userSpaceOnUse">
<stop stop-color="#1FAF38"/>
<stop offset="1" stop-color="#60D669"/>
</linearGradient>
<linearGradient id="paint1_linear_287_791" x1="55.7519" y1="79.7884" x2="55.7519" y2="16" gradientUnits="userSpaceOnUse">
<stop stop-color="#F9F9F9"/>
<stop offset="1" stop-color="white"/>
</linearGradient>
</defs>
</svg>
