<svg width="41" height="28" viewBox="0 0 41 28" fill="none" xmlns="http://www.w3.org/2000/svg">
<path d="M39.1153 4.37389C38.8879 3.52692 38.442 2.75454 37.8223 2.13405C37.2026 1.51355 36.4307 1.0667 35.5841 0.838217C32.4675 1.70082e-07 19.9745 0 19.9745 0C19.9745 0 7.48153 -1.70082e-07 4.36497 0.833758C3.51793 1.0615 2.74571 1.5081 2.12589 2.12871C1.50606 2.74932 1.06043 3.5221 0.833758 4.36943C-1.70082e-07 7.49045 0 14 0 14C0 14 -1.70082e-07 20.5096 0.833758 23.6261C1.29299 25.3471 2.64841 26.7025 4.36497 27.1618C7.48153 28 19.9745 28 19.9745 28C19.9745 28 32.4675 28 35.5841 27.1618C37.3051 26.7025 38.656 25.3471 39.1153 23.6261C39.949 20.5096 39.949 14 39.949 14C39.949 14 39.949 7.49045 39.1153 4.37389ZM16.0064 19.9745V8.02548L26.3503 13.9554L16.0064 19.9745Z" fill="#F8EAE2"/>
</svg>
