<svg width="28" height="28" viewBox="0 0 28 28" fill="none" xmlns="http://www.w3.org/2000/svg">
<g clip-path="url(#clip0_287_262)">
<path d="M14.0013 0.00280762C6.27049 0.00280762 0.00268555 6.27061 0.00268555 14.0014C0.00268555 20.9874 5.12109 26.7778 11.8145 27.832V18.0488H8.25849V14.0014H11.8145V10.9172C11.8145 7.40601 13.9047 5.46981 17.1009 5.46981C18.6325 5.46981 20.2369 5.74281 20.2369 5.74281V9.18541H18.4673C16.7313 9.18541 16.1881 10.2662 16.1881 11.3736V13.9986H20.0675L19.4473 18.046H16.1881V27.8292C22.8815 26.7806 27.9999 20.9888 27.9999 14.0014C27.9999 6.27061 21.7321 0.00280762 14.0013 0.00280762V0.00280762Z" fill="#F8EAE2"/>
</g>
<defs>
<clipPath id="clip0_287_262">
<rect width="28" height="28" fill="white"/>
</clipPath>
</defs>
</svg>
