<svg width="28" height="28" viewBox="0 0 28 28" fill="none" xmlns="http://www.w3.org/2000/svg">
<g clip-path="url(#clip0_287_264)">
<path d="M14.0001 9.34411C11.4363 9.34411 9.34415 11.4363 9.34415 14C9.34415 16.5638 11.4363 18.6559 14.0001 18.6559C16.5638 18.6559 18.656 16.5638 18.656 14C18.656 11.4363 16.5638 9.34411 14.0001 9.34411ZM27.9643 14C27.9643 12.072 27.9818 10.1614 27.8735 8.23688C27.7653 6.00148 27.2553 4.01756 25.6207 2.38293C23.9825 0.744795 22.0021 0.238337 19.7667 0.13006C17.8387 0.0217828 15.9281 0.0392469 14.0036 0.0392469C12.0755 0.0392469 10.165 0.0217828 8.24042 0.13006C6.00502 0.238337 4.0211 0.748288 2.38647 2.38293C0.748336 4.02106 0.241877 6.00148 0.1336 8.23688C0.0253228 10.1649 0.042787 12.0755 0.042787 14C0.042787 15.9246 0.0253228 17.8386 0.1336 19.7632C0.241877 21.9986 0.751828 23.9825 2.38647 25.6171C4.0246 27.2553 6.00502 27.7617 8.24042 27.87C10.1685 27.9783 12.079 27.9608 14.0036 27.9608C15.9316 27.9608 17.8422 27.9783 19.7667 27.87C22.0021 27.7617 23.986 27.2518 25.6207 25.6171C27.2588 23.979 27.7653 21.9986 27.8735 19.7632C27.9853 17.8386 27.9643 15.9281 27.9643 14V14ZM14.0001 21.1638C10.0357 21.1638 6.83631 17.9644 6.83631 14C6.83631 10.0357 10.0357 6.83626 14.0001 6.83626C17.9644 6.83626 21.1638 10.0357 21.1638 14C21.1638 17.9644 17.9644 21.1638 14.0001 21.1638ZM21.4572 8.21593C20.5316 8.21593 19.7842 7.46846 19.7842 6.54287C19.7842 5.61727 20.5316 4.86981 21.4572 4.86981C22.3828 4.86981 23.1303 5.61727 23.1303 6.54287C23.1306 6.76265 23.0875 6.98034 23.0035 7.18345C22.9195 7.38655 22.7963 7.5711 22.6409 7.72651C22.4855 7.88193 22.3009 8.00515 22.0978 8.08913C21.8947 8.17312 21.677 8.2162 21.4572 8.21593V8.21593Z" fill="#F8EAE2"/>
</g>
<defs>
<clipPath id="clip0_287_264">
<rect width="28" height="28" fill="white"/>
</clipPath>
</defs>
</svg>
