<svg width="259" height="80" viewBox="0 0 259 80" fill="none" xmlns="http://www.w3.org/2000/svg">
<path d="M4.352 62V17.2H12.544L33.6 48.752V17.2H41.792V62H33.6L12.544 30.512V62H4.352ZM50.477 62V17.2H58.669V62H50.477ZM67.352 62V17.2H96.28V23.792H75.544V36.336H92.312V42.8H75.544V62H67.352ZM117.852 62V17.2H126.044V55.6H145.884V62H117.852ZM166.705 62.768C163.633 62.768 160.859 62.064 158.385 60.656C155.953 59.248 154.011 57.3067 152.561 54.832C151.153 52.3147 150.449 49.4133 150.449 46.128C150.449 42.8427 151.174 39.9627 152.625 37.488C154.075 34.9707 156.017 33.008 158.449 31.6C160.923 30.192 163.697 29.488 166.769 29.488C169.798 29.488 172.529 30.192 174.961 31.6C177.435 33.008 179.377 34.9707 180.785 37.488C182.235 39.9627 182.961 42.8427 182.961 46.128C182.961 49.4133 182.235 52.3147 180.785 54.832C179.377 57.3067 177.435 59.248 174.961 60.656C172.486 62.064 169.734 62.768 166.705 62.768ZM166.705 55.664C168.838 55.664 170.694 54.8747 172.273 53.296C173.851 51.6747 174.641 49.2853 174.641 46.128C174.641 42.9707 173.851 40.6027 172.273 39.024C170.694 37.4027 168.859 36.592 166.769 36.592C164.593 36.592 162.715 37.4027 161.137 39.024C159.601 40.6027 158.833 42.9707 158.833 46.128C158.833 49.2853 159.601 51.6747 161.137 53.296C162.715 54.8747 164.571 55.664 166.705 55.664ZM201.725 52.528C200.189 52.528 198.76 52.3573 197.437 52.016L195.069 54.384C195.794 54.768 196.776 55.088 198.013 55.344C199.25 55.6 201.256 55.856 204.029 56.112C208.253 56.496 211.325 57.4987 213.245 59.12C215.165 60.7413 216.125 62.9813 216.125 65.84C216.125 67.7173 215.613 69.488 214.589 71.152C213.565 72.8587 211.986 74.224 209.853 75.248C207.72 76.3147 204.989 76.848 201.661 76.848C197.138 76.848 193.49 75.9947 190.717 74.288C187.944 72.624 186.557 70.1067 186.557 66.736C186.557 63.8773 187.944 61.4027 190.717 59.312C189.864 58.928 189.117 58.5227 188.477 58.096C187.88 57.6693 187.346 57.2213 186.877 56.752V55.28L192.445 49.392C189.97 47.216 188.733 44.4213 188.733 41.008C188.733 38.8747 189.245 36.9333 190.269 35.184C191.336 33.4347 192.829 32.048 194.749 31.024C196.669 30 198.994 29.488 201.725 29.488C203.517 29.488 205.181 29.744 206.717 30.256H218.749V35.248L213.309 35.632C214.162 37.2533 214.589 39.0453 214.589 41.008C214.589 43.1413 214.077 45.0827 213.053 46.832C212.029 48.5813 210.536 49.968 208.573 50.992C206.653 52.016 204.37 52.528 201.725 52.528ZM201.725 46.256C203.389 46.256 204.754 45.808 205.821 44.912C206.93 44.016 207.485 42.736 207.485 41.072C207.485 39.408 206.93 38.128 205.821 37.232C204.754 36.336 203.389 35.888 201.725 35.888C199.976 35.888 198.568 36.336 197.501 37.232C196.434 38.128 195.901 39.408 195.901 41.072C195.901 42.736 196.434 44.016 197.501 44.912C198.568 45.808 199.976 46.256 201.725 46.256ZM194.045 65.904C194.045 67.4827 194.77 68.656 196.221 69.424C197.714 70.2347 199.528 70.64 201.661 70.64C203.709 70.64 205.373 70.2133 206.653 69.36C207.933 68.5493 208.573 67.44 208.573 66.032C208.573 64.88 208.146 63.92 207.293 63.152C206.482 62.384 204.84 61.9147 202.365 61.744C200.616 61.616 198.994 61.424 197.501 61.168C196.264 61.8507 195.368 62.5973 194.813 63.408C194.301 64.2187 194.045 65.0507 194.045 65.904ZM238.705 62.768C235.633 62.768 232.859 62.064 230.385 60.656C227.953 59.248 226.011 57.3067 224.561 54.832C223.153 52.3147 222.449 49.4133 222.449 46.128C222.449 42.8427 223.174 39.9627 224.625 37.488C226.075 34.9707 228.017 33.008 230.449 31.6C232.923 30.192 235.697 29.488 238.769 29.488C241.798 29.488 244.529 30.192 246.961 31.6C249.435 33.008 251.377 34.9707 252.785 37.488C254.235 39.9627 254.961 42.8427 254.961 46.128C254.961 49.4133 254.235 52.3147 252.785 54.832C251.377 57.3067 249.435 59.248 246.961 60.656C244.486 62.064 241.734 62.768 238.705 62.768ZM238.705 55.664C240.838 55.664 242.694 54.8747 244.273 53.296C245.851 51.6747 246.641 49.2853 246.641 46.128C246.641 42.9707 245.851 40.6027 244.273 39.024C242.694 37.4027 240.859 36.592 238.769 36.592C236.593 36.592 234.715 37.4027 233.137 39.024C231.601 40.6027 230.833 42.9707 230.833 46.128C230.833 49.2853 231.601 51.6747 233.137 53.296C234.715 54.8747 236.571 55.664 238.705 55.664Z" fill="#F8EAE2"/>
</svg>
