<svg width="126" height="31" viewBox="0 0 126 31" fill="none" xmlns="http://www.w3.org/2000/svg">
<path d="M0.170392 23V0.65773H4.25584L14.7567 16.3931V0.65773H18.8421V23H14.7567L4.25584 7.29658V23H0.170392ZM23.1735 23V0.65773H27.2589V23H23.1735ZM31.5892 23V0.65773H46.0159V3.94524H35.6747V10.2011H44.037V13.4247H35.6747V23H31.5892ZM56.7741 23V0.65773H60.8596V19.8082H70.754V23H56.7741ZM81.1374 23.383C79.6054 23.383 78.2223 23.0319 76.9881 22.3297C75.7753 21.6275 74.8071 20.6594 74.0837 19.4252C73.3815 18.1698 73.0304 16.7229 73.0304 15.0845C73.0304 13.446 73.3921 12.0097 74.1156 10.7756C74.839 9.52016 75.8072 8.54136 77.0201 7.83917C78.2542 7.13699 79.6373 6.7859 81.1693 6.7859C82.6801 6.7859 84.0419 7.13699 85.2548 7.83917C86.4889 8.54136 87.4571 9.52016 88.1593 10.7756C88.8827 12.0097 89.2445 13.446 89.2445 15.0845C89.2445 16.7229 88.8827 18.1698 88.1593 19.4252C87.4571 20.6594 86.4889 21.6275 85.2548 22.3297C84.0206 23.0319 82.6482 23.383 81.1374 23.383ZM81.1374 19.8402C82.2013 19.8402 83.127 19.4465 83.9143 18.6592C84.7016 17.8506 85.0952 16.6591 85.0952 15.0845C85.0952 13.5099 84.7016 12.3289 83.9143 11.5416C83.127 10.733 82.212 10.3287 81.1693 10.3287C80.0841 10.3287 79.1479 10.733 78.3606 11.5416C77.5946 12.3289 77.2116 13.5099 77.2116 15.0845C77.2116 16.6591 77.5946 17.8506 78.3606 18.6592C79.1479 19.4465 80.0735 19.8402 81.1374 19.8402ZM98.6025 18.2762C97.8365 18.2762 97.1237 18.1911 96.4641 18.0209L95.2831 19.2018C95.6449 19.3933 96.1343 19.5529 96.7513 19.6806C97.3684 19.8082 98.3685 19.9359 99.7516 20.0636C101.858 20.2551 103.39 20.7551 104.348 21.5637C105.305 22.3723 105.784 23.4894 105.784 24.9151C105.784 25.8513 105.529 26.7344 105.018 27.5642C104.507 28.4153 103.72 29.0962 102.656 29.6069C101.592 30.1389 100.23 30.4049 98.5706 30.4049C96.3151 30.4049 94.4958 29.9793 93.1127 29.1282C91.7296 28.2983 91.0381 27.0429 91.0381 25.3619C91.0381 23.9362 91.7296 22.7021 93.1127 21.6595C92.6872 21.468 92.3148 21.2658 91.9956 21.053C91.6977 20.8402 91.4317 20.6168 91.1977 20.3828V19.6487L93.9745 16.7122C92.7404 15.6271 92.1233 14.2333 92.1233 12.5311C92.1233 11.4671 92.3786 10.499 92.8893 9.62656C93.4213 8.75414 94.166 8.0626 95.1235 7.55192C96.0811 7.04124 97.2407 6.7859 98.6025 6.7859C99.4962 6.7859 100.326 6.91357 101.092 7.16891H107.093V9.65847L104.38 9.84998C104.805 10.6586 105.018 11.5522 105.018 12.5311C105.018 13.595 104.763 14.5631 104.252 15.4355C103.741 16.308 102.997 16.9995 102.018 17.5102C101.06 18.0209 99.9218 18.2762 98.6025 18.2762ZM98.6025 15.1483C99.4324 15.1483 100.113 14.9249 100.645 14.478C101.199 14.0312 101.475 13.3928 101.475 12.563C101.475 11.7331 101.199 11.0948 100.645 10.6479C100.113 10.2011 99.4324 9.97765 98.6025 9.97765C97.7301 9.97765 97.0279 10.2011 96.496 10.6479C95.964 11.0948 95.6981 11.7331 95.6981 12.563C95.6981 13.3928 95.964 14.0312 96.496 14.478C97.0279 14.9249 97.7301 15.1483 98.6025 15.1483ZM94.7724 24.947C94.7724 25.7343 95.1342 26.3194 95.8576 26.7024C96.6024 27.1067 97.5067 27.3089 98.5706 27.3089C99.592 27.3089 100.422 27.0961 101.06 26.6705C101.699 26.2662 102.018 25.713 102.018 25.0108C102.018 24.4363 101.805 23.9575 101.379 23.5745C100.975 23.1915 100.156 22.9574 98.9217 22.8723C98.0493 22.8085 97.2407 22.7127 96.496 22.5851C95.8789 22.9255 95.4321 23.2979 95.1555 23.7022C94.9001 24.1065 94.7724 24.5214 94.7724 24.947ZM117.045 23.383C115.513 23.383 114.13 23.0319 112.895 22.3297C111.683 21.6275 110.714 20.6594 109.991 19.4252C109.289 18.1698 108.938 16.7229 108.938 15.0845C108.938 13.446 109.299 12.0097 110.023 10.7756C110.746 9.52016 111.714 8.54136 112.927 7.83917C114.161 7.13699 115.545 6.7859 117.077 6.7859C118.587 6.7859 119.949 7.13699 121.162 7.83917C122.396 8.54136 123.364 9.52016 124.067 10.7756C124.79 12.0097 125.152 13.446 125.152 15.0845C125.152 16.7229 124.79 18.1698 124.067 19.4252C123.364 20.6594 122.396 21.6275 121.162 22.3297C119.928 23.0319 118.555 23.383 117.045 23.383ZM117.045 19.8402C118.109 19.8402 119.034 19.4465 119.821 18.6592C120.609 17.8506 121.002 16.6591 121.002 15.0845C121.002 13.5099 120.609 12.3289 119.821 11.5416C119.034 10.733 118.119 10.3287 117.077 10.3287C115.991 10.3287 115.055 10.733 114.268 11.5416C113.502 12.3289 113.119 13.5099 113.119 15.0845C113.119 16.6591 113.502 17.8506 114.268 18.6592C115.055 19.4465 115.981 19.8402 117.045 19.8402Z" fill="#FF9D65"/>
</svg>
